<svg xmlns="http://www.w3.org/2000/svg" xmlns:xlink="http://www.w3.org/1999/xlink" width="2000" zoomAndPan="magnify" viewBox="0 0 1500 1499.999933" height="2000" preserveAspectRatio="xMidYMid meet" version="1.0"><defs><g/><clipPath id="01779dfb84"><path d="M 424.464844 826.15625 L 796.523438 826.15625 L 796.523438 947.976562 L 424.464844 947.976562 Z M 424.464844 826.15625 " clip-rule="nonzero"/></clipPath><clipPath id="031a66627a"><path d="M 361 645 L 596 645 L 596 1028 L 361 1028 Z M 361 645 " clip-rule="nonzero"/></clipPath><clipPath id="2f0f43492f"><path d="M 361.097656 987.007812 L 480.496094 644.96875 L 595.511719 685.117188 L 476.109375 1027.15625 Z M 361.097656 987.007812 " clip-rule="nonzero"/></clipPath><clipPath id="ff741a252e"><path d="M 726 634 L 972 634 L 972 1026 L 726 1026 Z M 726 634 " clip-rule="nonzero"/></clipPath><clipPath id="ab28e1f1fe"><path d="M 857.15625 1025.335938 L 726.898438 676.824219 L 841.011719 634.175781 L 971.269531 982.683594 Z M 857.15625 1025.335938 " clip-rule="nonzero"/></clipPath></defs><rect x="-150" width="1800" fill="#ffffff" y="-149.999993" height="1799.99992" fill-opacity="1"/><rect x="-150" width="1800" fill="#ffffff" y="-149.999993" height="1799.99992" fill-opacity="1"/><g fill="#000000" fill-opacity="1"><g transform="translate(146.960708, 1210.156665)"><g><path d="M 1.40625 0 L 1.40625 -14.140625 L 46.640625 -14.140625 C 75.859375 -14.140625 98.945312 -22.148438 115.90625 -38.171875 C 132.875 -54.191406 148.425781 -82.460938 162.5625 -122.984375 L 476.375 -1009.28125 L 566.84375 -1009.28125 L 910.328125 -96.125 C 922.578125 -65.019531 935.300781 -43.578125 948.5 -31.796875 C 961.695312 -20.023438 979.128906 -14.140625 1000.796875 -14.140625 L 1014.9375 -14.140625 L 1014.9375 0 L 605 0 L 605 -14.140625 L 650.234375 -14.140625 C 682.273438 -14.140625 705.363281 -18.144531 719.5 -26.15625 C 733.632812 -34.164062 740.703125 -48.535156 740.703125 -69.265625 C 740.703125 -76.804688 739.757812 -85.992188 737.875 -96.828125 C 735.988281 -107.660156 732.691406 -119.675781 727.984375 -132.875 L 643.171875 -367.53125 L 265.75 -367.53125 L 186.59375 -145.59375 C 181.875 -131.457031 178.101562 -118.96875 175.28125 -108.125 C 172.457031 -97.289062 171.046875 -87.164062 171.046875 -77.75 C 171.046875 -54.1875 180.703125 -37.691406 200.015625 -28.265625 C 219.335938 -18.847656 250.671875 -14.140625 294.015625 -14.140625 L 344.90625 -14.140625 L 344.90625 0 Z M 269.984375 -381.65625 L 637.515625 -381.65625 L 538.5625 -653.0625 C 522.539062 -697.351562 506.988281 -741.878906 491.90625 -786.640625 C 476.832031 -831.410156 464.585938 -872.640625 455.171875 -910.328125 C 441.972656 -870.753906 429.015625 -833.0625 416.296875 -797.25 C 403.578125 -761.4375 389.207031 -720.441406 373.1875 -674.265625 Z M 269.984375 -381.65625 "/></g></g></g><g clip-path="url(#01779dfb84)"><path fill="#ffffff" d="M 424.464844 826.15625 L 796.589844 826.15625 L 796.589844 947.976562 L 424.464844 947.976562 Z M 424.464844 826.15625 " fill-opacity="1" fill-rule="nonzero"/></g><g clip-path="url(#031a66627a)"><g clip-path="url(#2f0f43492f)"><path fill="#ffffff" d="M 361.097656 987.007812 L 480.445312 645.109375 L 595.460938 685.257812 L 476.109375 1027.15625 Z M 361.097656 987.007812 " fill-opacity="1" fill-rule="nonzero"/></g></g><g fill="#000000" fill-opacity="1"><g transform="translate(400.729022, 1369.71896)"><g><path d="M 531.5 14.140625 C 430.664062 14.140625 346.789062 -7.53125 279.875 -50.875 C 212.96875 -94.226562 162.785156 -154.539062 129.328125 -231.8125 C 95.878906 -309.09375 79.15625 -399.566406 79.15625 -503.234375 C 79.15625 -605.953125 96.117188 -696.414062 130.046875 -774.625 C 163.972656 -852.84375 215.332031 -913.863281 284.125 -957.6875 C 352.914062 -1001.507812 440.085938 -1023.421875 545.640625 -1023.421875 C 639.867188 -1023.421875 712.191406 -1007.398438 762.609375 -975.359375 C 813.035156 -943.316406 838.25 -904.679688 838.25 -859.453125 C 838.25 -827.410156 825.757812 -802.4375 800.78125 -784.53125 C 775.8125 -766.625 742.59375 -757.671875 701.125 -757.671875 C 701.125 -847.191406 686.988281 -911.269531 658.71875 -949.90625 C 630.445312 -988.550781 585.210938 -1007.875 523.015625 -1007.875 C 428.773438 -1007.875 361.160156 -966.40625 320.171875 -883.46875 C 279.179688 -800.539062 258.6875 -675.207031 258.6875 -507.46875 C 258.6875 -336.894531 281.535156 -209.671875 327.234375 -125.796875 C 372.941406 -41.929688 447.628906 0 551.296875 0 C 616.316406 0 669.085938 -17.195312 709.609375 -51.59375 C 750.128906 -85.988281 779.8125 -139.941406 798.65625 -213.453125 C 822.21875 -204.023438 834 -185.644531 834 -158.3125 C 834 -133.8125 823.394531 -108.132812 802.1875 -81.28125 C 780.988281 -54.425781 748.007812 -31.804688 703.25 -13.421875 C 658.488281 4.953125 601.238281 14.140625 531.5 14.140625 Z M 531.5 14.140625 "/></g></g></g><g clip-path="url(#ff741a252e)"><g clip-path="url(#ab28e1f1fe)"><path fill="#000000" d="M 857.15625 1025.335938 L 726.875 676.761719 L 840.984375 634.109375 L 971.269531 982.683594 Z M 857.15625 1025.335938 " fill-opacity="1" fill-rule="nonzero"/></g></g></svg>