<svg xmlns="http://www.w3.org/2000/svg" xmlns:xlink="http://www.w3.org/1999/xlink" width="2048" zoomAndPan="magnify" viewBox="0 0 1536 1535.999932" height="2048" preserveAspectRatio="xMidYMid meet" version="1.0"><path fill="#ffffff" d="M 1317.410156 248.121094 C 1299.6875 236.308594 1287.871094 218.585938 1270.148438 206.769531 C 1258.332031 189.046875 1240.609375 177.230469 1228.796875 159.507812 C 1128.363281 59.078125 1069.289062 0 1004.304688 0 L 531.6875 0 C 401.71875 0 295.378906 106.339844 295.378906 236.308594 L 295.378906 661.660156 L 413.535156 661.660156 L 413.535156 236.308594 C 413.535156 171.324219 466.703125 118.152344 531.6875 118.152344 L 962.949219 118.152344 C 1004.304688 129.96875 1004.304688 183.136719 1004.304688 230.398438 L 1004.304688 407.628906 C 1004.304688 443.078125 1027.933594 466.707031 1063.378906 466.707031 L 1240.609375 466.707031 C 1299.6875 466.707031 1358.765625 466.707031 1358.765625 525.785156 L 1358.765625 1293.785156 C 1358.765625 1358.769531 1305.59375 1411.9375 1240.609375 1411.9375 L 531.6875 1411.9375 C 466.703125 1411.9375 413.535156 1358.769531 413.535156 1293.785156 L 413.535156 1104.738281 L 295.378906 1104.738281 L 295.378906 1299.691406 C 295.378906 1429.660156 401.71875 1536 531.6875 1536 L 1240.609375 1536 C 1370.582031 1536 1476.917969 1429.660156 1476.917969 1299.691406 L 1476.917969 472.617188 C 1476.917969 407.628906 1417.839844 348.554688 1317.410156 248.121094 Z M 1317.410156 248.121094 " fill-opacity="1" fill-rule="nonzero"/><path fill="#ffffff" d="M 1063.378906 649.847656 L 118.148438 649.847656 C 82.703125 649.847656 59.074219 679.382812 59.074219 708.921875 L 59.074219 1063.382812 C 59.074219 1092.921875 82.703125 1122.460938 118.148438 1122.460938 L 1063.378906 1122.460938 C 1098.828125 1122.460938 1122.457031 1092.921875 1122.457031 1063.382812 L 1122.457031 708.921875 C 1122.457031 679.382812 1098.828125 649.847656 1063.378906 649.847656 Z M 378.085938 909.785156 C 354.457031 933.414062 319.011719 945.230469 277.65625 945.230469 C 271.75 945.230469 265.839844 945.230469 265.839844 945.230469 L 265.839844 1057.476562 C 265.839844 1063.382812 259.933594 1069.292969 254.027344 1069.292969 L 183.132812 1069.292969 C 183.132812 1063.382812 177.226562 1057.476562 177.226562 1057.476562 L 177.226562 726.644531 C 177.226562 720.738281 183.132812 720.738281 183.132812 714.832031 C 206.765625 708.921875 242.210938 708.921875 277.65625 708.921875 C 319.011719 708.921875 354.457031 720.738281 378.085938 738.460938 C 401.71875 756.183594 413.535156 785.722656 413.535156 821.167969 C 407.625 856.617188 401.71875 886.152344 378.085938 909.785156 Z M 703.011719 1022.03125 C 673.472656 1051.570312 620.304688 1069.292969 555.320312 1069.292969 C 519.871094 1069.292969 490.335938 1069.292969 478.519531 1063.382812 C 478.519531 1063.382812 472.609375 1057.476562 472.609375 1051.570312 L 472.609375 720.738281 C 472.609375 714.832031 478.519531 714.832031 478.519531 708.921875 C 508.058594 708.921875 537.59375 708.921875 573.042969 708.921875 C 632.117188 708.921875 673.472656 720.738281 703.011719 744.371094 C 738.457031 773.90625 756.179688 821.167969 756.179688 880.246094 C 756.179688 957.046875 726.640625 998.398438 703.011719 1022.03125 Z M 1027.933594 779.816406 C 1027.933594 785.722656 1022.027344 791.628906 1016.117188 791.628906 L 909.78125 791.628906 L 909.78125 850.707031 L 1010.210938 850.707031 C 1016.117188 850.707031 1022.027344 856.617188 1022.027344 862.523438 L 1022.027344 921.601562 C 1022.027344 927.507812 1016.117188 933.414062 1010.210938 933.414062 L 909.78125 933.414062 L 909.78125 1057.476562 C 909.78125 1063.382812 903.871094 1069.292969 897.964844 1069.292969 L 832.980469 1069.292969 C 827.074219 1069.292969 821.164062 1063.382812 821.164062 1057.476562 L 821.164062 720.738281 C 821.164062 714.832031 827.074219 708.921875 832.980469 708.921875 L 1016.117188 708.921875 C 1022.027344 708.921875 1027.933594 714.832031 1027.933594 720.738281 Z M 1027.933594 779.816406 " fill-opacity="1" fill-rule="nonzero"/><path fill="#ffffff" d="M 578.949219 785.722656 C 567.132812 785.722656 561.226562 785.722656 555.320312 785.722656 L 555.320312 992.492188 C 561.226562 992.492188 567.132812 992.492188 567.132812 992.492188 C 596.671875 992.492188 620.304688 986.585938 632.117188 968.863281 C 649.839844 951.136719 655.75 921.601562 655.75 886.152344 C 667.566406 821.167969 638.027344 785.722656 578.949219 785.722656 Z M 578.949219 785.722656 " fill-opacity="1" fill-rule="nonzero"/><path fill="#ffffff" d="M 277.65625 785.722656 C 271.75 785.722656 265.839844 785.722656 259.933594 785.722656 L 259.933594 868.429688 C 265.839844 868.429688 265.839844 868.429688 271.75 868.429688 C 301.289062 868.429688 319.011719 850.707031 319.011719 821.167969 C 324.917969 791.628906 301.289062 785.722656 277.65625 785.722656 Z M 277.65625 785.722656 " fill-opacity="1" fill-rule="nonzero"/></svg>